<svg width="971" height="971" viewBox="0 0 971 971" fill="none" xmlns="http://www.w3.org/2000/svg">
<g clip-path="url(#clip0_6_2)">
<g clip-path="url(#clip1_6_2)">
<path fill-rule="evenodd" clip-rule="evenodd" d="M484.35 2.0918C659.96 8.2497 713.21 32.4018 693.76 290.482C690.71 297.612 687.65 304.742 684.6 311.862C688.2 430.962 691.8 550.782 684.6 669.152C696.29 681.922 690.71 699.012 693.76 713.942C698.76 752.392 700.88 806.672 695.8 859.512C687.3 978.212 563.63 967.352 493.23 969.442C414.78 967.692 308.97 993.282 279.47 860.522C276.586 799.322 275.866 750.362 279.465 683.402C282.179 678.312 284.894 673.232 287.608 668.142C284.331 550.492 280.334 435.002 286.414 310.882C282.815 301.042 279.216 291.202 275.617 281.372C262.421 27.0418 312.566 10.9718 484.347 2.0918H484.35Z" fill="#FF9900" stroke="black" stroke-width="0.75"/>
<path fill-rule="evenodd" clip-rule="evenodd" d="M684.6 98.096C647.28 23.787 562.11 14.626 481.01 12.59C394.83 16.323 326.97 18.019 283.54 109.29C295.412 74.684 283.876 4.45 482.03 0.370003C661.87 3.7681 672.72 51.95 684.6 98.096Z" fill="#FF9900" stroke="black" stroke-width="0.75"/>
<path fill-rule="evenodd" clip-rule="evenodd" d="M315.092 234.5C395.51 143.22 575.682 135.42 654.062 235.52C648.632 283.02 643.202 330.52 637.782 378.03C563.812 361.4 447.082 343.76 333.422 383.12C327.309 333.58 321.202 284.04 315.094 234.5H315.092Z" fill="black" fill-opacity="0.83065" stroke="black" stroke-width="1.33333"/>
<path fill-rule="evenodd" clip-rule="evenodd" d="M346.648 706.82C445.73 717.34 537.678 723.78 625.558 701.73V847.29C538.358 905.31 432.828 902.26 348.678 850.34C348.003 802.5 347.325 754.66 346.646 706.82H346.648Z" fill="black" fill-opacity="0.83065" stroke="black" stroke-width="1.33333"/>
<path fill-rule="evenodd" clip-rule="evenodd" d="M693.25 292.01C716.49 302.7 720.4 327.64 713.1 333.24C704.96 332.39 692.74 320.85 684.6 318.99C684.43 316.61 684.26 314.24 684.09 311.86C687.48 305.41 689.86 298.46 693.25 292.01Z" fill="#2F2B2B" stroke="black" stroke-width="1.33333"/>
<path fill-rule="evenodd" clip-rule="evenodd" d="M278.21 289.54C254.519 299.2 249.524 323.94 256.565 329.85C264.738 329.36 277.449 318.38 285.667 316.87C285.941 314.5 286.215 312.14 286.489 309.77C283.383 303.18 281.316 296.13 278.21 289.54Z" fill="#2F2B2B" fill-opacity="0.75" stroke="black" stroke-width="1.33333"/>
<path fill-rule="evenodd" clip-rule="evenodd" d="M634.72 45.164C609.78 51.271 613.85 64.504 637.78 84.863C657.29 98.944 669.16 101.32 670.35 79.773C668.65 67.219 639.98 46.521 634.72 45.164Z" fill="url(#paint0_radial_6_2)" fill-opacity="0.75"/>
<path fill-rule="evenodd" clip-rule="evenodd" d="M336.154 44.172C361.5 48.248 358.51 61.766 336.311 83.988C318 99.596 306.354 102.92 303.433 81.541C304.112 68.891 331.021 45.948 336.154 44.172Z" fill="url(#paint1_radial_6_2)" fill-opacity="0.75" stroke="black" stroke-width="1.33333"/>
<path fill-rule="evenodd" clip-rule="evenodd" d="M302.877 270.13C293.716 417.39 295.752 553.45 300.841 695.62C304.913 720.73 307.967 746.86 312.038 771.96C324.423 710.04 332.227 579.41 326.289 456.41C321.03 390.24 312.717 332.73 302.877 270.13Z" fill="black" fill-opacity="0.83065" stroke="black" stroke-width="1.33333"/>
<path fill-rule="evenodd" clip-rule="evenodd" d="M670.24 258.62C679.4 405.88 677.37 541.94 672.28 684.11C668.2 709.22 665.15 735.35 661.08 760.46C648.69 698.53 640.89 567.9 646.83 444.9C652.09 378.74 660.4 321.22 670.24 258.62Z" fill="black" fill-opacity="0.83065" stroke="black" stroke-width="1.33333"/>
<path fill-rule="evenodd" clip-rule="evenodd" d="M446.21 897.5L528.98 896.78L526.82 905.42L450.52 906.14L446.21 897.5Z" fill="black" fill-opacity="0.58065" stroke="black" stroke-width="1.33333"/>
<path fill-rule="evenodd" clip-rule="evenodd" d="M505.23 921.617C505.23 924.003 503.448 926.292 500.276 927.979C497.104 929.666 492.801 930.614 488.315 930.614C483.829 930.614 479.527 929.666 476.354 927.979C473.182 926.292 471.4 924.003 471.4 921.617C471.4 919.231 473.182 916.942 476.354 915.255C479.527 913.568 483.829 912.62 488.315 912.62C492.801 912.62 497.104 913.568 500.276 915.255C503.448 916.942 505.23 919.231 505.23 921.617Z" fill="#29007D" stroke="black" stroke-width="1.33333"/>
<path fill-rule="evenodd" clip-rule="evenodd" d="M607.44 918.38C612.96 908.3 656.62 890.3 665.02 896.78C671.02 914.78 639.59 933.49 626.87 937.81C616.07 937.81 606.72 929.17 607.44 918.38Z" fill="#FF0000" fill-opacity="0.71774" stroke="black" stroke-width="1.33333"/>
<path fill-rule="evenodd" clip-rule="evenodd" d="M371 920.24C365.48 910.16 321.817 892.17 313.42 898.65C307.421 916.64 338.852 935.36 351.568 939.67C362.36 939.67 371.72 931.04 371 920.24Z" fill="#FF0000" fill-opacity="0.71774" stroke="black" stroke-width="1.33333"/>
<path d="M635.51 380.7C623.99 488.67 623.27 595.19 624.71 697.4" stroke="black" stroke-opacity="0.64516" stroke-width="3.5"/>
<path d="M333.92 384.3C343.757 502.1 347.116 601.91 347.596 703.16" stroke="black" stroke-opacity="0.66129" stroke-width="2.75"/>
<path d="M475.3 686.63C474.84 685.62 475.54 688.85 475.74 689.94C476.14 692.12 476.63 694.27 477.18 696.41C478.82 702.77 480.99 708.93 483.32 715.05C483.89 716.49 484.47 717.93 485.05 719.36L484.22 719.52C483.62 718.08 483.02 716.65 482.43 715.22C478.75 706.19 473.7 696.29 471.81 686.63H475.3Z" fill="black" fill-opacity="0.75"/>
<path fill-rule="evenodd" clip-rule="evenodd" d="M422.45 937.09C422.09 942.73 420.29 947.65 418.13 952.93C465.76 955.56 517.34 956.04 566.41 950.05C563.41 946.21 561.49 940.93 560.65 934.21C516.74 938.77 469.24 939.01 422.45 937.09Z" fill="#E1BD23" stroke="black" stroke-width="1.33333"/>
<path fill-rule="evenodd" clip-rule="evenodd" d="M504.12 31.2786C504.12 33.8417 502.148 36.2998 498.638 38.1121C495.129 39.9245 490.369 40.9427 485.405 40.9427C480.441 40.9427 475.681 39.9245 472.171 38.1121C468.662 36.2998 466.69 33.8417 466.69 31.2786C466.69 28.7156 468.662 26.2575 472.171 24.4451C475.681 22.6327 480.441 21.6146 485.405 21.6146C490.369 21.6146 495.129 22.6327 498.638 24.4451C502.148 26.2575 504.12 28.7156 504.12 31.2786Z" fill="#0A007D" stroke="black" stroke-width="0.465333"/>
<path d="M476.83 35.7786H479.348L481.176 27.3393L483.342 32.9234H486.037L488.23 27.3252L490.058 35.7786H492.577L489.72 25.3821H487.283L484.696 31.5586L482.124 25.3821H479.673L476.83 35.7786Z" fill="white"/>
<path d="M314.583 229.32C320.691 92.44 378.71 27.75 484.073 20.8C615.043 24.717 646.263 108.3 654.063 229.86" stroke="black" stroke-opacity="0.46774" stroke-width="2.4343"/>
<path d="M454.446 948.467V949.14H447.686C447.686 948.99 447.726 948.841 447.833 948.617C448.007 948.393 448.288 948.169 448.663 947.87C449.038 947.646 449.587 947.347 450.31 947.048C451.421 946.525 452.17 946.151 452.558 945.853C452.947 945.554 453.134 945.255 453.134 944.956C453.134 944.732 452.96 944.433 452.612 944.284C452.251 944.06 451.782 943.985 451.22 943.985C450.618 943.985 450.136 944.06 449.774 944.284C449.399 944.508 449.225 944.807 449.212 945.106L447.927 945.031C448.021 944.508 448.355 944.134 448.931 943.836C449.506 943.537 450.269 943.387 451.247 943.387C452.224 943.387 453 943.537 453.576 943.836C454.138 944.209 454.433 944.583 454.433 945.031C454.433 945.255 454.339 945.479 454.178 945.703C454.004 945.927 453.736 946.152 453.348 946.376C452.96 946.6 452.318 946.973 451.407 947.347C450.658 947.72 450.176 947.944 449.962 948.094C449.747 948.243 449.573 948.318 449.44 948.467H454.446ZM455.985 947.795L457.19 947.72C457.284 948.094 457.485 948.318 457.779 948.467C458.06 948.617 458.435 948.691 458.877 948.691C459.265 948.691 459.6 948.617 459.894 948.542C460.188 948.393 460.416 948.318 460.603 948.094C460.791 947.944 460.952 947.72 461.072 947.421C461.206 947.197 461.259 946.899 461.259 946.6V946.45C461.005 946.674 460.657 946.824 460.229 946.973C459.8 947.123 459.318 947.197 458.823 947.197C457.966 947.197 457.257 947.048 456.668 946.674C456.092 946.376 455.798 945.927 455.798 945.33C455.798 944.732 456.106 944.284 456.708 943.91C457.324 943.611 458.087 943.387 459.011 943.387C459.666 943.387 460.282 943.537 460.831 943.686C461.38 943.91 461.795 944.209 462.076 944.583C462.37 944.956 462.504 945.479 462.504 946.151C462.504 946.899 462.37 947.496 462.089 947.944C461.795 948.318 461.38 948.691 460.818 948.916C460.255 949.14 459.6 949.214 458.85 949.214C458.047 949.214 457.404 949.14 456.896 948.841C456.387 948.617 456.079 948.243 455.985 947.795ZM461.112 945.33C461.112 944.881 460.925 944.583 460.537 944.359C460.162 944.134 459.693 943.985 459.158 943.985C458.596 943.985 458.114 944.134 457.699 944.359C457.284 944.657 457.083 944.956 457.083 945.33C457.083 945.703 457.284 946.002 457.672 946.226C458.06 946.45 458.542 946.6 459.118 946.6C459.707 946.6 460.175 946.45 460.55 946.226C460.925 946.002 461.112 945.703 461.112 945.33ZM463.749 947.646L464.994 947.571C465.141 947.944 465.382 948.243 465.73 948.393C466.078 948.542 466.493 948.691 467.002 948.691C467.591 948.691 468.086 948.542 468.488 948.318C468.903 948.094 469.104 947.795 469.104 947.496C469.104 947.123 468.916 946.898 468.541 946.674C468.153 946.45 467.685 946.376 467.096 946.376C466.868 946.376 466.574 946.376 466.212 946.45L466.359 945.853H466.56C467.096 945.853 467.578 945.778 467.993 945.629C468.421 945.479 468.635 945.18 468.635 944.882C468.635 944.657 468.488 944.433 468.167 944.209C467.859 944.06 467.457 943.985 466.962 943.985C466.48 943.985 466.078 944.06 465.744 944.284C465.422 944.433 465.208 944.657 465.128 945.031L463.87 944.882C464.017 944.433 464.365 944.06 464.914 943.836C465.463 943.537 466.132 943.387 466.935 943.387C467.497 943.387 468.006 943.462 468.474 943.611C468.943 943.761 469.304 943.91 469.559 944.134C469.8 944.359 469.934 944.657 469.934 944.882C469.934 945.106 469.813 945.33 469.572 945.554C469.331 945.778 468.983 945.927 468.528 946.077C469.13 946.151 469.599 946.301 469.934 946.525C470.268 946.749 470.429 947.123 470.429 947.421C470.429 947.944 470.108 948.393 469.452 948.691C468.809 949.065 467.979 949.214 466.989 949.214C466.092 949.214 465.342 949.065 464.753 948.766C464.164 948.467 463.829 948.094 463.749 947.646ZM471.861 947.795L473.066 947.72C473.173 948.094 473.374 948.318 473.655 948.467C473.949 948.617 474.311 948.691 474.766 948.691C475.154 948.691 475.489 948.617 475.783 948.542C476.064 948.393 476.305 948.318 476.493 948.094C476.68 947.944 476.827 947.72 476.961 947.421C477.082 947.197 477.149 946.899 477.149 946.6C477.149 946.6 477.149 946.525 477.135 946.45C476.894 946.674 476.546 946.824 476.118 946.973C475.676 947.123 475.208 947.197 474.699 947.197C473.856 947.197 473.146 947.048 472.557 946.674C471.968 946.376 471.674 945.927 471.674 945.33C471.674 944.732 471.982 944.284 472.597 943.91C473.2 943.611 473.963 943.387 474.886 943.387C475.556 943.387 476.158 943.537 476.707 943.686C477.256 943.91 477.684 944.209 477.965 944.583C478.246 944.956 478.393 945.479 478.393 946.151C478.393 946.899 478.246 947.496 477.965 947.944C477.684 948.318 477.269 948.691 476.707 948.916C476.145 949.14 475.489 949.214 474.739 949.214C473.936 949.214 473.28 949.14 472.785 948.841C472.276 948.617 471.968 948.243 471.861 947.795ZM477.001 945.33C477.001 944.881 476.814 944.583 476.426 944.359C476.038 944.134 475.582 943.985 475.047 943.985C474.485 943.985 474.003 944.134 473.588 944.359C473.173 944.657 472.972 944.956 472.972 945.33C472.972 945.703 473.16 946.002 473.561 946.226C473.949 946.45 474.431 946.6 475.007 946.6C475.582 946.6 476.064 946.45 476.439 946.226C476.814 946.002 477.001 945.703 477.001 945.33ZM479.625 947.646L480.883 947.571C481.031 947.944 481.271 948.243 481.619 948.393C481.968 948.542 482.382 948.691 482.878 948.691C483.467 948.691 483.962 948.542 484.377 948.318C484.779 948.094 484.979 947.795 484.979 947.496C484.979 947.123 484.792 946.898 484.417 946.674C484.042 946.45 483.56 946.376 482.985 946.376C482.744 946.376 482.449 946.376 482.101 946.45L482.235 945.853H482.436C482.971 945.853 483.453 945.778 483.882 945.629C484.31 945.479 484.524 945.18 484.524 944.882C484.524 944.657 484.364 944.433 484.056 944.209C483.748 944.06 483.346 943.985 482.851 943.985C482.369 943.985 481.954 944.06 481.633 944.284C481.312 944.433 481.097 944.657 481.004 945.031L479.745 944.882C479.906 944.433 480.254 944.06 480.803 943.836C481.338 943.537 482.021 943.387 482.824 943.387C483.386 943.387 483.895 943.462 484.364 943.611C484.832 943.761 485.194 943.91 485.434 944.134C485.689 944.359 485.809 944.657 485.809 944.882C485.809 945.106 485.689 945.33 485.461 945.554C485.22 945.778 484.872 945.927 484.404 946.077C485.006 946.151 485.475 946.301 485.809 946.525C486.144 946.749 486.318 947.123 486.318 947.421C486.318 947.944 485.983 948.393 485.341 948.691C484.685 949.065 483.868 949.214 482.878 949.214C481.981 949.214 481.231 949.065 480.642 948.766C480.053 948.467 479.705 948.094 479.625 947.646ZM490.909 949.14L494.831 943.462H496.277L500.467 949.14H498.928L497.736 947.421H493.466L492.342 949.14H490.909ZM493.854 946.824H497.308L496.25 945.255C495.929 944.732 495.675 944.358 495.528 944.06C495.394 944.433 495.206 944.732 494.979 945.106L493.854 946.824ZM501.498 949.14V943.462H505.326C506.116 943.462 506.745 943.462 507.214 943.611C507.682 943.761 508.057 943.91 508.311 944.134C508.579 944.359 508.713 944.657 508.713 944.882C508.713 945.106 508.606 945.404 508.365 945.554C508.124 945.778 507.762 946.002 507.294 946.077C507.91 946.226 508.378 946.376 508.713 946.6C509.047 946.899 509.208 947.123 509.208 947.496C509.208 947.72 509.114 948.019 508.914 948.243C508.713 948.467 508.458 948.617 508.164 948.766C507.869 948.916 507.495 948.99 507.039 949.065C506.598 949.14 506.049 949.14 505.393 949.14H501.498ZM502.85 945.853H505.058C505.661 945.853 506.089 945.778 506.343 945.778C506.691 945.703 506.946 945.629 507.12 945.479C507.294 945.33 507.388 945.18 507.388 944.956C507.388 944.807 507.307 944.657 507.147 944.508C506.986 944.359 506.745 944.209 506.451 944.209C506.143 944.134 505.621 944.134 504.898 944.134H502.85V945.853ZM502.85 948.467H506.317C506.625 948.393 506.892 948.318 507.093 948.318C507.307 948.243 507.481 948.094 507.615 947.944C507.749 947.795 507.816 947.646 507.816 947.496C507.816 947.272 507.709 947.123 507.521 946.899C507.321 946.749 507.053 946.674 506.705 946.6C506.357 946.525 505.862 946.525 505.219 946.525H502.85V948.467ZM521.041 944.807L519.796 944.882C519.689 944.583 519.529 944.433 519.314 944.284C518.98 944.06 518.565 943.985 518.07 943.985C517.668 943.985 517.32 944.06 517.012 944.209C516.624 944.359 516.303 944.583 516.075 944.882C515.847 945.18 515.74 945.629 515.727 946.226C516.022 945.927 516.396 945.778 516.838 945.629C517.266 945.479 517.722 945.404 518.203 945.404C519.047 945.404 519.756 945.628 520.345 945.927C520.934 946.301 521.229 946.749 521.229 947.272C521.229 947.646 521.081 947.944 520.814 948.318C520.533 948.617 520.158 948.841 519.676 948.99C519.181 949.14 518.632 949.214 518.029 949.214C516.985 949.214 516.129 948.99 515.473 948.617C514.803 948.169 514.482 947.421 514.482 946.45C514.482 945.404 514.844 944.583 515.566 944.06C516.209 943.611 517.066 943.387 518.15 943.387C518.953 943.387 519.609 943.537 520.118 943.761C520.626 944.06 520.934 944.358 521.041 944.807ZM515.928 947.272C515.928 947.496 516.008 947.795 516.196 948.019C516.383 948.169 516.637 948.393 516.972 948.467C517.293 948.617 517.641 948.691 518.003 948.691C518.538 948.691 518.993 948.542 519.368 948.318C519.756 948.094 519.944 947.72 519.944 947.347C519.944 946.973 519.756 946.6 519.381 946.376C519.007 946.152 518.525 946.077 517.949 946.077C517.387 946.077 516.905 946.152 516.517 946.376C516.115 946.6 515.928 946.899 515.928 947.272ZM529.073 948.467V949.14H522.313C522.313 948.99 522.353 948.841 522.46 948.617C522.634 948.393 522.915 948.169 523.29 947.87C523.665 947.646 524.214 947.347 524.923 947.048C526.034 946.525 526.784 946.151 527.185 945.853C527.574 945.554 527.761 945.255 527.761 944.956C527.761 944.732 527.587 944.433 527.226 944.284C526.878 944.06 526.409 943.985 525.847 943.985C525.231 943.985 524.749 944.06 524.388 944.284C524.026 944.508 523.852 944.807 523.839 945.106L522.554 945.031C522.648 944.508 522.969 944.134 523.544 943.836C524.12 943.537 524.896 943.387 525.874 943.387C526.851 943.387 527.627 943.537 528.203 943.836C528.765 944.209 529.059 944.583 529.059 945.031C529.059 945.255 528.966 945.479 528.805 945.703C528.631 945.927 528.363 946.152 527.975 946.376C527.587 946.6 526.931 946.973 526.034 947.347C525.285 947.72 524.803 947.944 524.589 948.094C524.374 948.243 524.2 948.318 524.053 948.467H529.073Z" fill="black"/>
<path d="M659.98 762.9C655.18 875.19 591.36 944.29 490.11 935.65C403.26 938.53 320.72 885.27 311.61 775.86" stroke="black" stroke-opacity="0.52419" stroke-width="1.625"/>
</g>
</g>
<defs>
<radialGradient id="paint0_radial_6_2" cx="0" cy="0" r="1" gradientUnits="userSpaceOnUse" gradientTransform="translate(659.787 75.561) scale(112.726 108.459)">
<stop stop-color="#6B5635"/>
<stop offset="1" stop-color="white"/>
</radialGradient>
<radialGradient id="paint1_radial_6_2" cx="0" cy="0" r="1" gradientUnits="userSpaceOnUse" gradientTransform="translate(317.463 72.0841) scale(87.2626 90.3227)">
<stop stop-color="#6B5635"/>
<stop offset="1" stop-color="white"/>
</radialGradient>
<clipPath id="clip0_6_2">
<rect width="970.73" height="970.73" fill="white"/>
</clipPath>
<clipPath id="clip1_6_2">
<rect width="464.05" height="970.73" fill="white" transform="translate(253)"/>
</clipPath>
</defs>
</svg>
