<svg xmlns="http://www.w3.org/2000/svg" id="tree" x="0" y="0" version="1.1" viewBox="0 0 52 52" xml:space="preserve"><path d="M44.19 23.29c0 4.17-3.83 7.57-8.54 7.57H27V48h4.62c.56 0 1 .45 1 1s-.44 1-1 1H20.38c-.55 0-1-.45-1-1s.45-1 1-1H25V30.86h-8.65c-4.71 0-8.54-3.4-8.54-7.57 0-2.55 1.42-4.88 3.76-6.28-.21-.57-.32-1.16-.32-1.76 0-3.33 3.31-6.02 7.28-5.9a4.4 4.4 0 0 1-.05-.73c0-3.65 3.34-6.62 7.44-6.62 4.11 0 7.45 2.97 7.45 6.62 0 .25-.02.49-.05.73 3.93-.12 7.27 2.57 7.27 5.9 0 .58-.09 1.14-.29 1.68 2.43 1.39 3.89 3.75 3.89 6.36z"></path></svg>