<?xml version="1.0" encoding="utf-8"?>
<!-- Uploaded to: SVG Repo, www.svgrepo.com, Generator: SVG Repo Mixer Tools -->
<svg fill="#000000" width="800px" height="800px" viewBox="0 0 32 32" version="1.1" xmlns="http://www.w3.org/2000/svg">
<title>fire-ring</title>
<path d="M15.924 9.99c-8.129 0-14.72 4.475-14.72 9.994s6.59 9.994 14.72 9.994 14.72-4.475 14.72-9.994c0-5.52-6.59-9.994-14.72-9.994zM15.924 29.023c-6.805 0-12.321-3.745-12.321-8.366s5.516-8.366 12.321-8.366 12.321 3.745 12.321 8.366c0 4.62-5.516 8.366-12.321 8.366zM3.041 15.382c1.158-2.604 1.655-5.209 1.463-7.816 1.196 1.558 2.25 3.166 1.963 5.175zM15.903 4.922c-1.375 0.64-1.544 2.008-1.020 3.571 1.199 3.578-3.539-0.632-3.353-3.498l-1.421 6.049 11.294-0.359c-3.495-0.31-6.703-3.529-5.5-5.763l0 0zM19.489 1.048c0.318 3.308-4.785 4.489 0.238 8.174-1.311-4.234 2.493-5.050-0.238-8.174zM6.092 12.864c1.951-2.374 2.768-5.13 2.574-9.125 1.704 1.401 1.888 4.62 1.774 6.969zM22.645 3.89c-1.704 1.401-1.863 4.611-1.749 6.96l9.618 7.853c-0.499-2.221-0.649-3.597-0.14-4.252 0.754-0.97 0.728-2.457-0.149-3.893-0.472 2.999-2.44 1.879-3.936-3.353-1.745 5.927-4.509-0.273-3.644-3.316v0zM3.986 23.303c1.238 0.601 1.844 0.038 2.47-0.487 0.279 0.805 0.231 1.688 0.172 2.574 1.266 0.1 2.471 0.020 2.622-1.864 1.274 1.879-1.007 2.955 0.596 3.972 0.909 0.577 2.251-1.662 2.434-3.503 0.245 1.977-0.504 4.092 2.066 5.183l-7.802-1.902-2.558-3.973zM27.462 23.995c-1.337 1.641-2.069-0.666-2.183-2.084-1.006 1.285-0.036 3.676-1.086 4.684-0.133-0.639-0.747-1.433-1.582-1.919 0.144 1.515-0.326 2.951-2.337 3.943l3.896-1.047 3.292-3.577zM21.059 28.279c-2.161 0.645-3.057-1.636-3.394-3.308-0.264 2.191-1.073 3.835-3.433 4.038l4.004 0.166 2.822-0.897z"></path>
</svg>